<svg width="25" height="25" viewBox="0 0 25 25" fill="none" xmlns="http://www.w3.org/2000/svg">
<path d="M4.97998 16.5C4.97998 17.38 5.36998 18.17 5.97998 18.72V20.5C5.97998 21.05 6.42998 21.5 6.97998 21.5H7.97998C8.52998 21.5 8.97998 21.05 8.97998 20.5V19.5H16.98V20.5C16.98 21.05 17.43 21.5 17.98 21.5H18.98C19.53 21.5 19.98 21.05 19.98 20.5V18.72C20.59 18.17 20.98 17.38 20.98 16.5V6.5C20.98 3 17.4 2.5 12.98 2.5C8.55998 2.5 4.97998 3 4.97998 6.5V16.5ZM8.47998 17.5C7.64998 17.5 6.97998 16.83 6.97998 16C6.97998 15.17 7.64998 14.5 8.47998 14.5C9.30998 14.5 9.97998 15.17 9.97998 16C9.97998 16.83 9.30998 17.5 8.47998 17.5ZM17.48 17.5C16.65 17.5 15.98 16.83 15.98 16C15.98 15.17 16.65 14.5 17.48 14.5C18.31 14.5 18.98 15.17 18.98 16C18.98 16.83 18.31 17.5 17.48 17.5ZM18.98 11.5H6.97998V6.5H18.98V11.5Z" fill="#2474E5"/>
</svg>
