<svg width="25" height="25" viewBox="0 0 25 25" fill="none" xmlns="http://www.w3.org/2000/svg">
<path d="M1.02999 5.137L5.19999 0.997C5.51999 0.68 5.95999 0.5 6.41999 0.5H17.794C18.743 0.5 19.52 1.263 19.52 2.214V8.214C19.52 9.157 18.743 9.929 17.793 9.929C17.7921 10.2681 17.7243 10.6036 17.5935 10.9164C17.4627 11.2292 17.2715 11.5132 17.0308 11.752C16.7902 11.9908 16.5047 12.1798 16.1909 12.3082C15.8771 12.4365 15.541 12.5017 15.202 12.5C14.8629 12.5017 14.5269 12.4365 14.2131 12.3082C13.8992 12.1798 13.6138 11.9908 13.3731 11.752C13.1325 11.5132 12.9413 11.2292 12.8105 10.9164C12.6797 10.6036 12.6119 10.2681 12.611 9.929H7.42899C7.42807 10.2679 7.36035 10.6033 7.22969 10.916C7.09904 11.2286 6.90801 11.5125 6.66755 11.7513C6.42709 11.9901 6.1419 12.1791 5.82831 12.3076C5.51472 12.4361 5.17887 12.5014 4.83999 12.5C4.50085 12.5018 4.16469 12.4368 3.85075 12.3085C3.53681 12.1802 3.25127 11.9912 3.01049 11.7524C2.76971 11.5135 2.57841 11.2295 2.44757 10.9166C2.31673 10.6038 2.2489 10.2681 2.24799 9.929C1.29699 9.929 0.519989 9.157 0.519989 8.214V6.354C0.519989 5.9 0.700989 5.463 1.02999 5.137ZM17.793 4.786V3.07C17.7914 2.84199 17.6996 2.62387 17.5378 2.46329C17.3759 2.30271 17.157 2.21273 16.929 2.213H14.339V5.642H16.929C17.157 5.64227 17.3759 5.55229 17.5378 5.39171C17.6996 5.23113 17.7914 5.01401 17.793 4.786ZM15.202 11C15.798 11 16.282 10.52 16.282 9.929C16.282 9.337 15.798 8.857 15.202 8.857C14.606 8.857 14.122 9.337 14.122 9.929C14.122 10.52 14.606 11 15.202 11ZM9.15599 5.643H12.611V2.214H9.15599V5.643ZM4.83799 11C5.43399 11 5.91799 10.52 5.91799 9.929C5.91799 9.337 5.43399 8.857 4.83799 8.857C4.24199 8.857 3.75799 9.337 3.75799 9.929C3.75799 10.52 4.24199 11 4.83799 11ZM7.42999 5.643V2.214H6.56599L3.11099 5.643H7.42999ZM21.687 18.784C21.559 18.784 21.432 18.806 21.311 18.82L19.852 17.356H20.978C21.368 17.356 21.687 17.035 21.687 16.642V16.371C21.6879 16.2497 21.6577 16.1301 21.599 16.0239C21.5404 15.9176 21.4554 15.8282 21.3522 15.7643C21.2491 15.7005 21.1312 15.6642 21.01 15.6591C20.8887 15.6539 20.7682 15.6801 20.66 15.735L19.045 16.549L17.225 14.714C17.1609 14.6466 17.0838 14.5929 16.9984 14.5562C16.913 14.5194 16.821 14.5003 16.728 14.5H14.603C14.4136 14.5 14.232 14.5752 14.0981 14.7091C13.9642 14.843 13.889 15.0246 13.889 15.214C13.889 15.4034 13.9642 15.585 14.0981 15.7189C14.232 15.8528 14.4136 15.928 14.603 15.928H16.14C16.332 15.928 16.509 16.007 16.643 16.135L17.855 17.356H15.482C15.3706 17.3566 15.2609 17.3836 15.162 17.435L12.939 18.555C12.8065 18.6223 12.656 18.6455 12.5093 18.6213C12.3627 18.597 12.2277 18.5265 12.124 18.42L11.274 17.563C11.1386 17.4328 10.9588 17.3588 10.771 17.356H8.22799C8.03862 17.356 7.85702 17.4312 7.72311 17.5651C7.58921 17.699 7.51399 17.8806 7.51399 18.07C7.51399 18.2594 7.58921 18.441 7.72311 18.5749C7.85702 18.7088 8.03862 18.784 8.22799 18.784H10.353C8.56799 18.784 7.17299 20.441 7.59799 22.312C7.71582 22.8228 7.97388 23.2905 8.34313 23.6626C8.71237 24.0347 9.17813 24.2963 9.68799 24.418C10.1066 24.5181 10.5424 24.5216 10.9626 24.4285C11.3828 24.3353 11.7763 24.1478 12.1133 23.8802C12.4504 23.6126 12.7222 23.2719 12.9082 22.8838C13.0942 22.4957 13.1895 22.0704 13.187 21.64L14.185 22.647C14.455 22.919 14.815 23.068 15.191 23.068H15.907C16.417 23.068 16.884 22.798 17.139 22.348L19.2 18.713L19.916 19.434C19.4955 19.7737 19.1803 20.2259 19.0071 20.738C18.8339 21.2501 18.81 21.8008 18.938 22.326C19.179 23.354 20.008 24.189 21.028 24.426C22.877 24.846 24.52 23.433 24.52 21.64C24.52 20.062 23.252 18.784 21.687 18.784ZM10.353 23.068C9.57399 23.068 8.93699 22.426 8.93699 21.64C8.93699 20.855 9.57399 20.212 10.353 20.212C11.133 20.212 11.77 20.855 11.77 21.64C11.77 22.426 11.133 23.068 10.353 23.068ZM21.687 23.068C20.907 23.068 20.27 22.426 20.27 21.64C20.27 20.855 20.907 20.212 21.687 20.212C22.466 20.212 23.103 20.855 23.103 21.64C23.103 22.426 22.466 23.068 21.687 23.068Z" fill="#474747"/>
</svg>
