<svg width="25" height="25" viewBox="0 0 25 25" fill="none" xmlns="http://www.w3.org/2000/svg">
<path fill-rule="evenodd" clip-rule="evenodd" d="M8.53997 2.89999C7.52154 2.89999 6.54482 3.30456 5.82468 4.0247C5.10454 4.74484 4.69997 5.72156 4.69997 6.73999V17.3C4.69997 17.5546 4.80112 17.7988 4.98115 17.9788C5.16119 18.1589 5.40537 18.26 5.65997 18.26H6.61997L4.69997 22.1H6.61997L7.19597 20.948H17.564L18.14 22.1H20.06L18.14 18.26H19.1C19.3546 18.26 19.5988 18.1589 19.7788 17.9788C19.9588 17.7988 20.06 17.5546 20.06 17.3V6.73999C20.06 5.72156 19.6554 4.74484 18.9353 4.0247C18.2151 3.30456 17.2384 2.89999 16.22 2.89999H8.53997ZM16.22 18.26H8.53997L8.05997 19.22H16.7L16.22 18.26ZM8.53997 4.81999C8.03076 4.81999 7.5424 5.02228 7.18233 5.38235C6.82226 5.74242 6.61997 6.23078 6.61997 6.73999V11.54H11.42V4.81999H8.53997ZM18.14 11.54H13.34V4.81999H16.22C16.7292 4.81999 17.2175 5.02228 17.5776 5.38235C17.9377 5.74242 18.14 6.23078 18.14 6.73999V11.54ZM9.49997 14.9C9.49997 15.2819 9.34826 15.6482 9.07821 15.9182C8.80816 16.1883 8.44189 16.34 8.05997 16.34C7.67806 16.34 7.31179 16.1883 7.04174 15.9182C6.77169 15.6482 6.61997 15.2819 6.61997 14.9C6.61997 14.5181 6.77169 14.1518 7.04174 13.8818C7.31179 13.6117 7.67806 13.46 8.05997 13.46C8.44189 13.46 8.80816 13.6117 9.07821 13.8818C9.34826 14.1518 9.49997 14.5181 9.49997 14.9ZM16.7 16.34C17.0819 16.34 17.4482 16.1883 17.7182 15.9182C17.9883 15.6482 18.14 15.2819 18.14 14.9C18.14 14.5181 17.9883 14.1518 17.7182 13.8818C17.4482 13.6117 17.0819 13.46 16.7 13.46C16.3181 13.46 15.9518 13.6117 15.6817 13.8818C15.4117 14.1518 15.26 14.5181 15.26 14.9C15.26 15.2819 15.4117 15.6482 15.6817 15.9182C15.9518 16.1883 16.3181 16.34 16.7 16.34Z" fill="#474747"/>
</svg>
